<?xml version="1.0" encoding="utf-8"?>
<!-- Generator: Adobe Illustrator 22.0.1, SVG Export Plug-In . SVG Version: 6.00 Build 0)  -->
<svg version="1.1" id="Layer_1" xmlns="http://www.w3.org/2000/svg" xmlns:xlink="http://www.w3.org/1999/xlink" x="0px" y="0px"
	 viewBox="0 0 100 100" style="enable-background:new 0 0 100 100;" xml:space="preserve">
<style type="text/css">
	.st0{fill:#6BA6A7;}
	.st1{font-family:'Charter-Roman';}
	.st2{font-size:46.891px;}
</style>
<path class="st0" d="M70,83.1c-0.3,0-0.7,0-1,0c-5.9-0.4-10.8-4.6-12.3-10.3H23.2c-2.9,0-5.3-2.7-5.3-6V34.9c0-3.3,2.4-6,5.3-6h53.5
	c2.9,0,5.3,2.7,5.3,6v31.9c0,3.3-2.4,6-5.3,6h-6.9c0.2,2.8,1.4,5.5,3.4,7.5c0.6,0.6,0.6,1.5,0,2.1c-0.2,0.2-0.5,0.4-0.8,0.4
	C71.7,83,70.8,83.1,70,83.1z M59.5,71.1c-1.3,0-38.6-37.8-38.6-36.2v31.9c0,1.6-1.3-34,0-34l37.1,37C58.7,69.8,59.4,70.3,59.5,71.1
	c3.9,3.1,9.2,6,9.8,9C67.6,77.4,59.3,74.2,59.5,71.1c0-0.8,8.1-1.3,8.9-1.3h8.4c1.3,0,2.3-1.4,2.3-3V34.9c0-1.6,1.3,34.9,0,34.9
	L59.5,71.1z"/>
<text transform="matrix(1 0 0 1 40.8765 65.8291)" class="st1 st2">I</text>
</svg>
