<?xml version="1.0" encoding="utf-8"?>
<!-- Generator: Adobe Illustrator 22.0.1, SVG Export Plug-In . SVG Version: 6.00 Build 0)  -->
<svg version="1.1" id="Layer_1" xmlns="http://www.w3.org/2000/svg" xmlns:xlink="http://www.w3.org/1999/xlink" x="0px" y="0px"
	 viewBox="0 0 100 100" style="enable-background:new 0 0 100 100;" xml:space="preserve">
<style type="text/css">
	.st0{fill:#7A77D2;}
</style>
<path class="st0" d="M70,83.1c-0.3,0-0.7,0-1,0c-5.9-0.4-10.8-4.6-12.3-10.3H23.2c-2.9,0-5.3-2.7-5.3-6V34.9c0-3.3,2.4-6,5.3-6h53.5
	c2.9,0,5.3,2.7,5.3,6v31.9c0,3.3-2.4,6-5.3,6h-6.9c0.2,2.8,1.4,5.5,3.4,7.5c0.6,0.6,0.6,1.5,0,2.1c-0.2,0.2-0.5,0.4-0.8,0.4
	C71.7,83,70.8,83.1,70,83.1z M59.5,71.1c-1.3,0-38.6-37.8-38.6-36.2v31.9c0,1.6-1.3-34,0-34l37.1,37C58.7,69.8,59.4,70.3,59.5,71.1
	c3.9,3.1,9.2,6,9.8,9C67.6,77.4,59.3,74.2,59.5,71.1c0-0.8,8.1-1.3,8.9-1.3h8.4c1.3,0,2.3-1.4,2.3-3V34.9c0-1.6,1.3,34.9,0,34.9
	L59.5,71.1z"/>
<path d="M34.8,59.4v6.5h13.5V59h-2.6v-5.1h2.6l6.7,12h10.2v-6.7h-4.4l-3.3-5.2c0,0-1.9-3.7-9-3.2l0-0.3c0,0,6.9,0.8,12.3-9.6h3.8
	v-6.8H50.4v6.3H53c0,0-1.3,3.6-3.5,6.2c-0.8,0.9-2.2,0.5-3.9,0.4v-6.2h2.3v-6.8H34.8V41h2.4v18.2L34.8,59.4z"/>
</svg>
